<svg id="svg" version="1.1" xmlns="http://www.w3.org/2000/svg" xmlns:xlink="http://www.w3.org/1999/xlink" width="400" height="565.8475110270952" viewBox="0, 0, 400,565.8475110270952"><g id="svgg"><path id="path0" d="M202.899 134.822 C 202.899 148.975,202.964 160.555,203.043 160.555 C 203.123 160.555,205.290 159.137,207.858 157.404 C 211.422 155.000,212.716 154.255,213.322 154.261 C 213.758 154.266,222.791 155.161,233.396 156.251 C 244.001 157.341,252.697 158.217,252.720 158.196 C 252.757 158.164,240.482 146.060,211.058 117.116 L 202.899 109.090 202.899 134.822 M344.297 161.790 C 344.297 172.616,344.355 181.474,344.425 181.474 C 344.495 181.474,346.204 180.374,348.223 179.029 L 351.895 176.583 367.166 178.148 C 375.566 179.009,382.459 179.684,382.486 179.649 C 382.553 179.559,348.196 145.668,346.048 143.705 L 344.297 142.105 344.297 161.790 M55.955 162.293 C 55.955 177.997,56.019 181.970,56.270 181.821 C 56.443 181.719,58.085 180.635,59.918 179.412 C 62.118 177.945,63.489 177.190,63.950 177.191 C 64.335 177.192,71.220 177.872,79.249 178.703 C 87.279 179.533,93.884 180.176,93.928 180.132 C 93.973 180.088,88.311 174.445,81.348 167.593 C 74.385 160.742,65.823 152.310,62.321 148.857 L 55.955 142.578 55.955 162.293 M193.269 167.248 L 183.766 173.666 165.808 168.363 L 147.850 163.060 138.890 171.968 C 133.963 176.867,121.342 189.382,110.846 199.778 L 91.761 218.682 92.502 220.248 C 93.466 222.287,94.539 223.832,96.337 225.766 C 97.138 226.628,97.795 227.428,97.795 227.542 C 97.795 228.034,97.111 228.355,96.064 228.355 L 94.939 228.355 96.430 229.942 L 97.921 231.529 99.126 230.257 C 101.655 227.589,103.208 224.500,103.550 221.460 C 103.799 219.239,105.356 218.755,105.356 220.898 C 105.356 223.444,107.146 227.253,109.576 229.877 C 111.473 231.926,111.504 232.388,109.748 232.388 L 108.580 232.388 112.261 236.193 C 114.286 238.285,115.942 240.134,115.942 240.301 C 115.942 240.889,115.326 241.210,114.199 241.210 L 113.061 241.210 114.430 242.596 L 115.799 243.982 159.349 243.982 L 202.899 243.982 202.899 202.394 C 202.899 179.521,202.870 160.812,202.836 160.818 C 202.801 160.825,198.496 163.718,193.269 167.248 M266.541 171.645 C 268.755 173.863,270.624 175.677,270.694 175.677 C 270.763 175.677,269.007 173.863,266.793 171.645 C 264.578 169.427,262.709 167.612,262.640 167.612 C 262.570 167.612,264.326 169.427,266.541 171.645 M337.114 186.552 C 333.233 189.192,329.921 191.407,329.755 191.476 C 329.529 191.569,303.947 184.202,302.293 183.567 C 302.126 183.503,299.357 186.040,296.141 189.205 L 290.293 194.959 296.362 200.882 C 299.699 204.140,307.603 211.901,313.925 218.129 L 325.420 229.452 326.094 228.778 L 326.769 228.103 325.569 228.103 C 324.691 228.103,324.327 227.993,324.212 227.691 C 324.031 227.219,324.016 227.242,325.980 224.923 C 328.658 221.760,330.180 218.496,330.613 214.987 C 330.810 213.391,330.828 213.359,331.569 213.359 C 332.322 213.359,332.324 213.363,332.647 215.481 C 333.208 219.169,334.705 222.145,337.555 225.242 C 339.719 227.593,339.718 227.986,337.550 228.149 L 336.484 228.229 340.378 232.262 L 344.271 236.295 344.284 209.011 C 344.292 194.004,344.269 181.732,344.234 181.740 C 344.200 181.747,340.996 183.912,337.114 186.552 M48.227 187.328 L 41.129 192.140 27.332 188.072 L 13.535 184.004 6.787 190.615 L 0.039 197.227 0.021 209.452 C 0.002 221.529,0.008 221.667,0.477 220.897 C 1.255 219.622,2.029 217.240,2.359 215.108 C 2.664 213.129,2.676 213.106,3.413 213.106 C 4.153 213.106,4.159 213.119,4.480 215.229 C 5.042 218.917,6.538 221.893,9.389 224.990 C 11.552 227.340,11.552 227.733,9.387 227.897 L 8.324 227.977 12.123 231.947 C 16.203 236.211,16.381 236.343,16.387 235.098 C 16.397 232.605,17.626 232.315,17.987 234.720 C 18.256 236.511,18.196 236.516,20.164 234.531 L 21.788 232.892 20.598 232.892 C 19.032 232.892,19.021 232.391,20.551 230.730 C 23.058 228.008,24.575 224.959,24.911 221.964 C 25.160 219.743,26.717 219.259,26.717 221.402 C 26.717 223.948,28.507 227.757,30.937 230.381 C 32.842 232.439,32.868 232.892,31.081 232.892 L 29.885 232.892 31.261 234.285 C 32.534 235.574,32.663 235.645,32.982 235.231 C 33.863 234.086,35.050 231.098,35.361 229.238 C 35.829 226.446,36.799 226.206,37.120 228.802 C 37.227 229.672,37.557 231.031,37.853 231.823 L 38.392 233.262 40.886 230.620 L 43.381 227.977 42.171 227.851 C 40.581 227.685,40.478 227.158,41.765 225.760 C 45.064 222.174,46.820 218.653,47.325 214.609 C 47.508 213.150,47.535 213.106,48.267 213.106 C 49.020 213.106,49.023 213.112,49.345 215.229 C 49.901 218.882,51.451 221.994,54.119 224.810 L 55.686 226.465 55.694 204.474 C 55.699 192.379,55.618 182.490,55.514 182.499 C 55.410 182.508,52.130 184.681,48.227 187.328 M100.945 186.767 C 102.743 188.570,104.271 190.044,104.341 190.044 C 104.410 190.044,102.995 188.570,101.197 186.767 C 99.399 184.965,97.871 183.491,97.802 183.491 C 97.733 183.491,99.147 184.965,100.945 186.767 M284.058 188.910 C 286.064 190.920,287.763 192.565,287.832 192.565 C 287.901 192.565,286.317 190.920,284.310 188.910 C 282.304 186.900,280.605 185.255,280.536 185.255 C 280.467 185.255,282.051 186.900,284.058 188.910 M397.480 194.203 C 398.791 195.520,399.921 196.597,399.990 196.597 C 400.059 196.597,399.043 195.520,397.732 194.203 C 396.420 192.886,395.290 191.808,395.221 191.808 C 395.152 191.808,396.168 192.886,397.480 194.203 M54.367 227.828 L 53.157 227.977 54.430 229.228 L 55.703 230.479 55.703 229.039 C 55.703 228.247,55.674 227.617,55.640 227.639 C 55.605 227.661,55.032 227.746,54.367 227.828 M78.755 231.390 L 74.999 235.152 75.955 236.131 L 76.911 237.109 81.093 232.795 L 85.276 228.481 84.163 228.407 C 83.551 228.365,82.929 228.173,82.780 227.980 C 82.565 227.699,81.754 228.386,78.755 231.390 M99.127 232.820 C 99.535 233.228,99.583 233.228,99.991 232.820 C 100.399 232.412,100.375 232.388,99.559 232.388 C 98.743 232.388,98.719 232.412,99.127 232.820 M14.115 238.563 C 14.440 238.910,14.782 239.193,14.874 239.193 C 14.967 239.193,15.171 238.910,15.329 238.563 C 15.610 237.946,15.594 237.933,14.569 237.933 L 13.523 237.933 14.115 238.563 M342.281 238.815 C 342.607 239.162,342.948 239.445,343.041 239.445 C 343.133 239.445,343.338 239.162,343.495 238.815 C 343.777 238.198,343.761 238.185,342.736 238.185 L 341.689 238.185 342.281 238.815 M78.583 238.997 L 79.143 239.558 79.703 238.997 L 80.263 238.437 79.143 238.437 L 78.023 238.437 78.583 238.997 M0.000 432.136 L 0.000 565.848 200.000 565.848 L 400.000 565.848 400.000 432.136 L 400.000 298.425 368.872 298.425 L 337.744 298.425 337.744 305.482 L 337.744 312.539 336.740 312.539 L 335.736 312.539 335.665 305.419 L 335.594 298.299 335.535 305.419 L 335.476 312.539 320.609 312.539 L 305.742 312.539 305.671 305.419 L 305.600 298.299 305.541 305.419 L 305.482 312.539 304.474 312.539 L 303.466 312.539 303.466 305.482 L 303.466 298.425 290.359 298.425 L 277.253 298.425 277.253 305.482 L 277.253 312.539 270.199 312.539 L 263.146 312.539 263.075 305.419 L 263.004 298.299 262.945 305.419 L 262.886 312.539 162.827 312.539 L 62.768 312.539 62.697 305.419 L 62.626 298.299 62.567 305.419 L 62.508 312.539 55.451 312.539 L 48.393 312.539 48.393 305.482 L 48.393 298.425 24.197 298.425 L 0.000 298.425 0.000 432.136 M367.234 399.622 L 367.234 446.881 202.773 446.881 L 38.311 446.881 38.311 399.622 L 38.311 352.363 202.773 352.363 L 367.234 352.363 367.234 399.622 M44.108 399.622 L 44.108 441.084 202.773 441.084 L 361.437 441.084 361.437 399.622 L 361.437 358.160 202.773 358.160 L 44.108 358.160 44.108 399.622 M128.688 389.387 C 132.195 390.980,132.902 396.097,129.970 398.671 C 128.885 399.624,128.877 399.650,129.621 399.837 C 132.080 400.454,133.545 404.801,132.182 407.435 C 130.828 410.052,128.842 410.586,120.466 410.586 L 114.178 410.586 114.178 399.748 L 114.178 388.910 120.920 388.915 C 126.933 388.920,127.773 388.971,128.688 389.387 M147.628 389.318 C 154.914 391.784,157.292 401.649,151.987 407.404 C 146.308 413.564,136.636 410.932,134.476 402.638 C 132.347 394.466,139.985 386.731,147.628 389.318 M170.939 389.861 C 177.520 393.104,178.969 402.482,173.703 407.747 C 167.101 414.349,156.273 409.518,156.245 399.958 C 156.221 391.843,164.047 386.465,170.939 389.861 M185.564 393.175 L 185.633 397.439 189.112 393.175 L 192.591 388.910 195.603 388.910 C 197.259 388.910,198.614 388.975,198.614 389.055 C 198.614 389.134,196.903 391.296,194.812 393.859 C 192.550 396.631,191.065 398.662,191.146 398.872 C 191.220 399.066,193.045 401.722,195.200 404.773 C 197.355 407.824,199.118 410.380,199.118 410.453 C 199.118 410.526,197.719 410.586,196.010 410.586 L 192.901 410.586 190.189 406.427 C 187.128 401.734,187.373 401.934,186.306 403.262 L 185.507 404.255 185.507 407.421 L 185.507 410.586 182.483 410.586 L 179.458 410.586 179.458 399.748 L 179.458 388.910 182.477 388.910 L 185.495 388.910 185.564 393.175 M216.159 394.309 L 220.416 399.707 220.484 394.309 L 220.552 388.910 223.571 388.910 L 226.591 388.910 226.591 399.748 L 226.591 410.586 224.134 410.586 L 221.676 410.586 217.517 405.427 L 213.359 400.268 213.290 405.427 L 213.222 410.586 210.203 410.586 L 207.183 410.586 207.183 399.748 L 207.183 388.910 209.542 388.910 L 211.901 388.910 216.159 394.309 M244.908 399.370 C 247.028 405.054,248.829 409.906,248.912 410.153 C 249.052 410.570,248.835 410.596,245.837 410.531 L 242.611 410.460 242.009 408.507 L 241.407 406.553 238.549 406.553 L 235.691 406.553 235.102 408.507 L 234.513 410.460 231.308 410.531 C 229.545 410.569,228.103 410.559,228.103 410.507 C 228.103 410.426,235.152 391.497,235.891 389.594 L 236.163 388.892 238.609 388.964 L 241.055 389.036 244.908 399.370 M259.265 393.699 C 260.440 396.263,261.489 398.451,261.597 398.559 C 261.706 398.668,262.806 396.545,264.041 393.841 L 266.289 388.925 269.628 388.917 L 272.968 388.910 272.968 399.748 L 272.968 410.586 269.948 410.586 L 266.929 410.586 266.861 405.104 L 266.793 399.622 265.039 403.476 L 263.286 407.330 261.650 407.257 L 260.014 407.183 258.303 403.403 L 256.591 399.622 256.588 405.104 L 256.585 410.586 253.560 410.586 L 250.536 410.586 250.536 399.741 L 250.536 388.895 253.833 388.966 L 257.130 389.036 259.265 393.699 M291.619 391.556 L 291.619 394.203 287.083 394.203 L 282.546 394.203 282.546 395.715 L 282.546 397.227 286.452 397.227 L 290.359 397.227 290.359 399.622 L 290.359 402.016 286.452 402.016 L 282.546 402.016 282.546 403.655 L 282.546 405.293 287.209 405.293 L 291.871 405.293 291.871 407.940 L 291.871 410.586 284.184 410.586 L 276.497 410.586 276.497 399.748 L 276.497 388.910 284.058 388.910 L 291.619 388.910 291.619 391.556 M120.227 395.715 L 120.227 397.227 122.512 397.227 C 125.324 397.227,125.772 397.026,125.772 395.757 C 125.772 394.346,125.489 394.203,122.697 394.203 L 120.227 394.203 120.227 395.715 M142.785 394.672 C 139.055 396.976,139.565 404.163,143.537 405.260 C 146.290 406.020,148.416 403.979,148.653 400.350 C 148.943 395.910,145.763 392.833,142.785 394.672 M164.844 394.644 C 163.310 395.415,162.323 397.418,162.320 399.765 C 162.312 406.340,169.335 407.640,170.654 401.308 C 171.618 396.678,168.322 392.897,164.844 394.644 M237.633 398.801 C 236.554 402.703,236.442 402.310,238.599 402.217 L 240.334 402.142 239.445 398.803 L 238.556 395.465 237.633 398.801 M120.227 403.781 L 120.227 405.545 122.817 405.545 C 125.889 405.545,126.528 405.260,126.528 403.892 C 126.528 402.327,125.923 402.016,122.873 402.016 L 120.227 402.016 120.227 403.781 " stroke="none" fill="#c8e060" fill-rule="evenodd"></path><path id="path1" d="M2.823 213.283 C 2.657 213.449,2.520 214.049,2.520 214.616 C 2.520 216.141,1.875 218.421,0.879 220.416 L -0.002 222.180 -0.001 240.104 L 0.000 258.028 1.436 258.196 C 2.226 258.289,3.972 258.290,5.315 258.197 C 9.033 257.941,9.010 258.277,5.043 262.254 C 0.588 266.719,-0.666 266.275,16.639 266.358 C 35.346 266.448,34.113 266.930,28.824 261.598 L 25.120 257.865 27.474 257.792 C 30.506 257.698,30.506 257.695,27.363 254.391 C 24.587 251.475,24.502 251.292,25.908 251.292 C 26.754 251.292,26.775 251.268,26.619 250.488 C 26.484 249.810,26.585 249.554,27.267 248.850 L 28.076 248.015 26.923 248.015 C 24.347 248.015,24.432 247.856,30.112 242.029 L 32.631 239.445 31.312 239.445 C 29.847 239.445,29.617 239.108,30.526 238.287 C 30.818 238.023,31.402 237.373,31.822 236.843 L 32.587 235.879 31.109 234.385 L 29.631 232.892 30.829 232.892 C 32.501 232.892,32.594 232.418,31.210 230.933 C 28.431 227.953,27.059 225.148,26.588 221.487 C 26.340 219.555,25.339 219.725,25.108 221.739 C 24.740 224.954,23.208 228.040,20.625 230.772 C 19.069 232.417,19.118 232.892,20.843 232.892 L 22.042 232.892 20.162 234.785 C 18.108 236.852,17.949 236.850,17.913 234.750 C 17.881 232.855,16.638 232.596,16.631 234.482 C 16.623 236.681,16.444 236.587,12.144 232.132 L 8.134 227.977 9.171 227.845 C 11.162 227.590,11.296 227.136,9.806 225.697 C 6.755 222.751,4.302 217.765,4.289 214.480 C 4.285 213.587,3.927 212.980,3.403 212.980 C 3.250 212.980,2.989 213.117,2.823 213.283 M47.702 213.296 C 47.566 213.469,47.388 214.358,47.307 215.271 C 47.021 218.499,45.215 222.132,42.427 225.087 C 40.375 227.263,40.441 227.851,42.737 227.851 L 43.668 227.851 41.116 230.501 C 39.712 231.959,38.563 233.293,38.563 233.466 C 38.563 233.919,40.064 236.078,41.446 237.613 C 42.817 239.134,42.764 239.445,41.137 239.445 L 39.960 239.445 42.099 241.651 C 47.569 247.291,47.281 246.930,46.763 247.503 C 46.462 247.835,45.984 248.015,45.402 248.015 C 44.564 248.015,44.532 248.043,44.925 248.436 C 45.318 248.829,45.297 248.912,44.609 249.696 C 43.666 250.770,43.841 251.292,45.144 251.292 C 46.485 251.292,46.475 251.310,43.442 254.352 C 40.126 257.679,40.124 257.845,43.404 257.845 L 45.740 257.845 42.026 261.566 C 38.191 265.407,37.976 265.713,38.799 266.154 C 39.667 266.618,67.549 266.505,67.549 266.037 C 67.549 265.709,66.502 265.658,59.636 265.658 C 49.435 265.658,49.712 266.082,55.967 260.030 L 60.030 256.098 57.302 256.026 C 53.571 255.928,53.575 255.866,57.621 251.777 L 60.845 248.519 59.710 248.519 C 58.676 248.519,57.971 248.200,57.971 247.731 C 57.971 247.631,59.608 245.867,61.608 243.812 L 65.245 240.076 64.002 239.999 C 62.447 239.904,62.453 239.739,64.083 237.933 C 66.498 235.257,68.284 231.560,68.298 229.205 C 68.314 226.771,69.665 227.256,69.901 229.780 C 70.143 232.372,71.627 235.239,74.218 238.121 C 75.583 239.639,75.529 239.950,73.904 239.950 L 72.727 239.950 74.739 242.029 C 80.414 247.895,80.257 247.710,79.911 248.127 C 79.704 248.376,79.169 248.519,78.447 248.519 L 77.309 248.519 79.360 250.656 C 81.832 253.230,81.817 252.813,79.511 255.066 C 77.366 257.161,77.230 257.680,78.795 257.795 C 79.529 257.849,80.021 258.071,80.490 258.560 L 81.150 259.249 78.130 262.261 C 73.603 266.776,72.559 266.435,90.634 266.354 C 108.304 266.275,107.042 266.725,102.459 262.131 L 99.188 258.853 110.354 258.853 C 124.901 258.853,124.314 259.277,118.206 253.179 L 113.917 248.897 116.628 248.771 C 120.373 248.597,120.368 248.543,116.174 244.341 L 112.828 240.987 114.194 240.909 C 116.435 240.782,116.260 240.401,112.001 236.134 L 108.261 232.388 109.463 232.388 C 111.170 232.388,111.223 231.929,109.708 230.271 C 107.150 227.472,105.790 224.810,105.327 221.696 C 104.941 219.104,104.022 218.836,103.747 221.235 C 103.377 224.468,101.531 228.094,99.002 230.560 L 97.904 231.630 96.281 229.993 L 94.659 228.355 95.613 228.355 C 97.719 228.355,98.012 227.651,96.511 226.201 C 93.530 223.324,91.528 219.367,91.044 215.402 C 90.764 213.106,89.230 212.738,89.221 214.965 C 89.208 218.241,86.738 223.272,83.704 226.201 C 82.213 227.640,82.348 228.095,84.341 228.349 L 85.379 228.481 81.147 232.917 L 76.914 237.353 74.694 235.122 L 72.474 232.892 73.674 232.892 C 75.361 232.892,75.426 232.436,73.974 230.820 C 71.536 228.109,69.959 225.149,69.689 222.782 C 69.425 220.464,69.357 220.290,68.705 220.290 C 68.037 220.290,67.802 220.703,67.798 221.886 C 67.788 224.418,65.975 228.073,63.308 230.933 C 61.924 232.418,62.017 232.892,63.690 232.892 L 64.889 232.892 63.136 234.659 L 61.383 236.425 57.151 232.201 L 52.920 227.977 53.996 227.845 C 56.028 227.594,56.170 227.144,54.671 225.697 C 51.619 222.751,49.167 217.765,49.153 214.480 C 49.148 213.199,48.315 212.519,47.702 213.296 M331.004 213.548 C 330.868 213.721,330.690 214.610,330.609 215.523 C 330.322 218.751,328.516 222.384,325.729 225.340 C 323.677 227.514,323.743 228.103,326.036 228.103 L 326.964 228.103 322.763 232.418 C 317.862 237.450,317.723 237.760,320.312 237.883 L 321.910 237.958 318.107 241.850 C 313.173 246.898,313.169 247.007,317.908 247.007 L 320.714 247.007 315.745 251.999 C 308.795 258.980,307.969 258.316,323.690 258.386 C 338.584 258.452,337.655 258.050,333.209 262.506 C 328.755 266.971,327.500 266.527,344.805 266.610 C 363.513 266.700,362.279 267.182,356.990 261.850 L 353.287 258.117 355.640 258.044 C 358.673 257.950,358.673 257.947,355.529 254.643 C 352.754 251.727,352.668 251.544,354.075 251.544 C 354.920 251.544,354.942 251.520,354.786 250.740 C 354.650 250.062,354.751 249.806,355.434 249.102 L 356.243 248.267 355.090 248.267 C 352.513 248.267,352.598 248.108,358.279 242.281 L 360.798 239.698 359.479 239.698 C 358.013 239.698,357.783 239.360,358.692 238.539 C 358.984 238.275,359.568 237.625,359.988 237.095 L 360.752 236.132 359.456 234.819 C 357.895 233.239,357.880 233.144,359.176 233.144 C 360.693 233.144,360.683 232.642,359.129 230.883 C 356.653 228.080,354.883 224.449,354.883 222.174 C 354.883 220.960,354.653 220.542,353.986 220.542 C 353.359 220.542,353.345 220.580,352.988 223.385 C 352.758 225.188,350.869 228.713,349.073 230.692 C 347.253 232.698,347.242 233.144,349.013 233.144 L 350.216 233.144 348.400 234.960 C 346.358 237.002,346.310 237.003,346.092 234.981 C 345.869 232.897,345.032 232.842,344.737 234.892 C 344.629 235.646,344.485 236.318,344.416 236.386 C 344.348 236.454,342.495 234.647,340.297 232.369 L 336.301 228.229 337.337 228.097 C 339.328 227.842,339.463 227.388,337.973 225.949 C 334.921 223.003,332.469 218.017,332.455 214.732 C 332.450 213.451,331.616 212.771,331.004 213.548 M375.854 213.535 C 375.687 213.701,375.550 214.240,375.548 214.732 C 375.534 217.989,373.055 223.028,370.030 225.949 C 368.447 227.478,368.683 228.103,370.842 228.103 L 371.888 228.103 369.175 230.825 L 366.462 233.546 367.438 235.047 C 367.975 235.872,368.951 237.140,369.607 237.865 C 370.983 239.386,370.932 239.698,369.304 239.698 L 368.126 239.698 370.265 241.903 C 375.735 247.543,375.447 247.182,374.929 247.755 C 374.628 248.087,374.150 248.267,373.568 248.267 C 372.730 248.267,372.699 248.295,373.092 248.688 C 373.484 249.081,373.464 249.164,372.775 249.948 C 371.832 251.022,372.007 251.544,373.310 251.544 C 374.652 251.544,374.641 251.562,371.609 254.604 C 368.292 257.931,368.290 258.097,371.571 258.097 L 373.907 258.097 370.192 261.818 C 366.354 265.662,366.142 265.965,366.969 266.408 C 367.929 266.922,396.487 266.628,396.820 266.101 C 397.056 265.727,396.649 265.213,394.078 262.636 L 391.060 259.609 395.530 259.609 L 400.000 259.609 400.000 244.008 L 400.000 228.407 399.368 227.310 C 398.580 225.942,397.732 223.280,397.732 222.174 C 397.732 220.957,397.501 220.542,396.827 220.542 C 396.172 220.542,396.091 220.750,395.865 223.033 C 395.640 225.308,393.842 228.646,391.475 231.185 C 390.090 232.670,390.183 233.144,391.857 233.144 L 393.055 233.144 391.302 234.911 L 389.549 236.677 385.317 232.453 C 381.124 228.269,381.092 228.229,381.909 228.161 C 384.112 227.980,384.423 227.461,383.086 226.197 C 380.142 223.411,377.806 218.974,377.421 215.433 C 377.197 213.375,376.662 212.727,375.854 213.535 M255.879 214.039 C 255.713 214.205,255.575 214.744,255.573 215.236 C 255.559 218.493,253.081 223.532,250.055 226.453 C 248.480 227.974,248.710 228.607,250.837 228.607 L 251.854 228.607 247.652 232.922 C 242.752 237.954,242.612 238.264,245.202 238.387 L 246.800 238.463 242.997 242.354 C 238.062 247.403,238.058 247.511,242.797 247.511 L 245.604 247.511 240.634 252.503 C 237.901 255.249,235.665 257.582,235.665 257.687 C 235.665 258.862,235.617 258.856,245.062 258.805 C 249.944 258.778,252.861 258.693,251.544 258.616 C 248.534 258.439,248.527 258.523,251.863 254.969 L 254.577 252.077 253.501 252.000 C 251.871 251.882,252.084 251.423,255.406 247.899 L 258.386 244.739 257.500 244.739 C 256.191 244.739,256.175 244.374,257.421 242.908 C 259.680 240.249,261.122 237.177,261.122 235.023 C 261.122 233.094,262.248 233.790,262.461 235.851 C 262.658 237.768,264.242 240.930,265.900 242.716 C 267.334 244.262,267.363 244.739,266.023 244.739 L 265.112 244.739 268.165 247.947 C 271.473 251.422,271.678 251.878,269.996 252.000 L 268.920 252.078 271.704 255.011 C 274.986 258.466,274.984 258.439,271.980 258.601 L 269.647 258.727 270.293 259.332 L 270.939 259.938 282.718 259.892 C 294.562 259.847,294.879 259.823,294.892 258.996 C 294.894 258.866,292.948 256.800,290.567 254.405 L 286.237 250.049 288.988 249.977 C 292.759 249.879,292.755 249.831,288.580 245.615 L 285.245 242.247 286.602 242.169 C 288.835 242.042,288.657 241.657,284.401 237.394 L 280.662 233.648 281.864 233.648 C 283.634 233.648,283.623 233.202,281.801 231.196 C 279.745 228.933,278.112 225.662,277.710 222.999 C 277.447 221.263,277.354 221.046,276.875 221.046 C 276.395 221.046,276.302 221.263,276.040 222.999 C 275.633 225.691,274.000 228.967,271.950 231.204 C 270.123 233.197,270.111 233.648,271.882 233.648 L 273.080 233.648 271.328 235.415 L 269.575 237.181 265.342 232.957 C 261.150 228.774,261.117 228.733,261.935 228.665 C 264.137 228.484,264.448 227.965,263.112 226.701 C 260.167 223.915,257.831 219.478,257.446 215.937 C 257.222 213.879,256.687 213.231,255.879 214.039 M100.567 232.475 C 100.567 233.058,99.597 233.352,99.183 232.894 C 98.732 232.396,98.739 232.388,99.646 232.388 C 100.153 232.388,100.567 232.427,100.567 232.475 M15.450 238.563 C 15.219 239.049,14.959 239.445,14.874 239.445 C 14.788 239.445,14.333 239.049,13.863 238.563 L 13.008 237.681 14.439 237.681 L 15.871 237.681 15.450 238.563 M59.539 238.241 L 58.979 238.801 58.419 238.241 L 57.859 237.681 58.979 237.681 L 60.099 237.681 59.539 238.241 M343.617 238.815 C 343.385 239.301,343.126 239.698,343.040 239.698 C 342.954 239.698,342.499 239.301,342.029 238.815 L 341.174 237.933 342.606 237.933 L 344.037 237.933 343.617 238.815 M387.706 238.493 L 387.146 239.053 386.585 238.493 L 386.025 237.933 387.146 237.933 L 388.266 237.933 387.706 238.493 M79.830 238.873 L 79.143 239.560 78.456 238.873 L 77.768 238.185 79.143 238.185 L 80.518 238.185 79.830 238.873 M267.731 238.997 L 267.171 239.558 266.611 238.997 L 266.051 238.437 267.171 238.437 L 268.291 238.437 267.731 238.997 M38.311 399.622 L 38.311 446.881 202.773 446.881 L 367.234 446.881 367.234 399.622 L 367.234 352.363 202.773 352.363 L 38.311 352.363 38.311 399.622 M361.563 399.622 L 361.563 441.210 202.773 441.210 L 43.982 441.210 43.918 399.874 C 43.882 377.139,43.907 358.396,43.973 358.223 C 44.069 357.971,75.972 357.920,202.828 357.971 L 361.563 358.034 361.563 399.622 M141.961 389.301 C 134.292 391.365,131.697 401.343,137.230 407.496 C 141.444 412.184,149.286 411.554,152.809 406.245 C 158.356 397.889,151.256 386.798,141.961 389.301 M164.271 389.167 C 156.264 391.191,153.593 401.788,159.581 407.776 C 167.379 415.575,179.826 406.739,176.155 396.009 C 174.453 391.031,169.097 387.948,164.271 389.167 M114.430 399.896 L 114.430 410.629 121.046 410.533 C 129.309 410.412,131.245 409.801,132.310 406.978 C 133.331 404.268,131.348 399.748,129.137 399.748 C 128.579 399.748,128.765 399.402,129.612 398.866 C 132.458 397.064,132.298 391.765,129.341 389.889 L 128.194 389.162 121.312 389.162 L 114.430 389.162 114.430 399.896 M179.458 399.874 L 179.458 410.586 182.357 410.586 L 185.255 410.586 185.255 407.430 L 185.255 404.274 186.301 403.139 L 187.346 402.005 190.210 406.295 L 193.073 410.586 196.108 410.586 L 199.142 410.586 198.322 409.389 C 197.871 408.730,195.990 406.053,194.143 403.439 L 190.783 398.687 194.257 394.413 C 196.168 392.062,197.887 389.919,198.077 389.650 C 198.414 389.175,198.342 389.162,195.431 389.166 L 192.439 389.170 189.288 393.090 C 184.818 398.652,185.255 398.609,185.255 393.486 L 185.255 389.162 182.357 389.162 L 179.458 389.162 179.458 399.874 M207.183 399.865 L 207.183 410.586 210.203 410.586 L 213.222 410.586 213.290 405.359 L 213.359 400.132 217.534 405.296 L 221.710 410.460 224.024 410.532 L 226.339 410.605 226.339 399.883 L 226.339 389.162 223.445 389.162 L 220.552 389.162 220.484 394.507 L 220.416 399.853 216.247 394.570 L 212.077 389.288 209.630 389.216 L 207.183 389.144 207.183 399.865 M235.895 389.846 C 235.747 390.232,234.229 394.291,232.521 398.866 C 230.812 403.440,229.125 407.949,228.770 408.885 L 228.126 410.586 231.250 410.586 L 234.374 410.586 235.028 408.444 L 235.681 406.301 238.563 406.301 L 241.446 406.301 242.099 408.444 L 242.753 410.586 245.855 410.586 L 248.957 410.586 245.000 399.937 L 241.044 389.288 238.603 389.216 L 236.163 389.144 235.895 389.846 M250.536 399.867 L 250.536 410.586 253.434 410.586 L 256.333 410.586 256.333 404.991 C 256.333 401.469,256.421 399.484,256.571 399.635 C 256.703 399.766,257.533 401.462,258.416 403.403 L 260.023 406.931 261.654 407.005 L 263.286 407.078 265.039 403.224 L 266.793 399.370 266.861 404.978 L 266.928 410.586 269.822 410.586 L 272.716 410.586 272.716 399.874 L 272.716 389.162 269.502 389.169 L 266.289 389.177 264.041 394.093 C 262.806 396.797,261.706 398.920,261.597 398.811 C 261.489 398.703,260.440 396.515,259.265 393.951 L 257.130 389.288 253.833 389.218 L 250.536 389.147 250.536 399.867 M276.497 399.874 L 276.497 410.586 284.184 410.586 L 291.871 410.586 291.871 408.071 L 291.871 405.556 287.146 405.488 L 282.420 405.419 282.345 403.718 L 282.271 402.016 286.315 402.016 L 290.359 402.016 290.359 399.628 L 290.359 397.240 286.389 397.171 L 282.420 397.101 282.344 395.652 L 282.268 394.203 286.944 394.203 L 291.619 394.203 291.619 391.682 L 291.619 389.162 284.058 389.162 L 276.497 389.162 276.497 399.874 M125.167 394.144 C 127.310 395.575,125.791 397.480,122.507 397.480 L 120.227 397.480 120.227 395.715 L 120.227 393.951 122.558 393.955 C 123.841 393.957,125.015 394.042,125.167 394.144 M146.573 394.711 C 148.127 395.672,149.118 398.287,148.815 400.630 C 147.844 408.142,139.519 406.610,140.225 399.049 C 140.590 395.146,143.765 392.976,146.573 394.711 M168.367 394.581 C 172.216 396.571,171.475 404.634,167.368 405.455 C 164.417 406.045,162.330 403.733,162.330 399.874 C 162.330 395.531,165.251 392.969,168.367 394.581 M239.588 398.904 C 240.063 400.685,240.452 402.227,240.453 402.331 C 240.453 402.435,239.603 402.520,238.563 402.520 C 237.161 402.520,236.673 402.434,236.673 402.186 C 236.673 401.915,237.754 397.838,238.344 395.885 C 238.558 395.179,238.659 395.425,239.588 398.904 M125.923 402.209 C 126.433 402.549,126.825 403.569,126.675 404.165 C 126.369 405.383,125.935 405.545,122.981 405.545 L 120.227 405.545 120.227 403.781 L 120.227 402.016 122.936 402.020 C 124.427 402.022,125.771 402.107,125.923 402.209 " stroke="none" fill="#2a4f38" fill-rule="evenodd"></path><path id="path2" d="M0.000 98.602 L 0.000 197.204 1.071 196.212 C 1.660 195.667,4.696 192.694,7.818 189.606 L 13.493 183.991 27.309 188.065 L 41.125 192.138 48.540 187.142 L 55.955 182.146 55.955 162.372 L 55.955 142.598 67.567 154.034 C 73.953 160.323,82.658 168.850,86.911 172.982 C 91.164 177.114,98.629 184.402,103.500 189.176 C 108.370 193.951,112.440 197.858,112.543 197.858 C 112.646 197.858,120.642 190.031,130.312 180.465 L 147.893 163.073 165.829 168.370 L 183.765 173.666 193.331 167.224 L 202.896 160.781 202.960 134.984 L 203.025 109.187 225.607 131.405 C 238.028 143.625,253.623 158.920,260.264 165.393 C 266.905 171.867,276.395 181.153,281.353 186.029 L 290.368 194.895 296.179 189.173 C 299.374 186.026,302.126 183.503,302.293 183.567 C 305.934 184.965,329.611 191.563,330.040 191.300 C 330.327 191.125,333.651 188.894,337.428 186.344 L 344.294 181.706 344.359 161.867 L 344.423 142.029 362.363 159.672 C 380.356 177.369,391.154 187.921,396.912 193.438 L 400.000 196.396 400.000 98.198 L 400.000 0.000 200.000 0.000 L 0.000 0.000 0.000 98.602 " stroke="none" fill="#d8fbdc" fill-rule="evenodd"></path><path id="path3" d="M207.757 157.468 L 202.911 160.681 202.905 202.331 L 202.899 243.982 222.122 243.982 L 241.344 243.982 244.095 241.223 L 246.846 238.464 245.225 238.388 C 242.609 238.264,242.743 237.963,247.652 232.922 L 251.854 228.607 250.837 228.607 C 248.710 228.607,248.480 227.974,250.055 226.453 C 253.089 223.524,255.559 218.493,255.573 215.217 C 255.583 212.690,257.086 213.421,257.494 216.153 C 258.065 219.963,260.171 223.919,263.112 226.701 C 264.448 227.965,264.137 228.484,261.935 228.665 C 261.117 228.733,261.150 228.774,265.342 232.957 L 269.575 237.181 271.328 235.415 L 273.080 233.648 271.882 233.648 C 270.111 233.648,270.123 233.197,271.950 231.204 C 274.000 228.967,275.633 225.691,276.040 222.999 C 276.302 221.263,276.395 221.046,276.875 221.046 C 277.354 221.046,277.447 221.263,277.710 222.999 C 278.112 225.662,279.745 228.933,281.801 231.196 C 283.623 233.202,283.634 233.648,281.864 233.648 L 280.662 233.648 284.401 237.394 C 288.657 241.657,288.834 242.042,286.604 242.169 L 285.247 242.247 286.088 243.115 L 286.929 243.982 301.440 243.982 L 315.950 243.982 318.953 240.971 L 321.957 237.960 320.336 237.883 C 317.722 237.760,317.852 237.466,322.788 232.355 C 325.113 229.947,326.654 228.307,326.213 228.710 L 325.410 229.442 313.923 218.124 C 307.605 211.899,299.520 203.977,295.957 200.520 C 292.393 197.064,281.294 186.147,271.292 176.261 C 261.290 166.375,253.067 158.286,253.018 158.286 C 252.970 158.286,244.083 157.379,233.270 156.270 C 222.457 155.162,213.384 154.255,213.106 154.255 C 212.829 154.255,210.422 155.701,207.757 157.468 M348.021 179.144 L 344.309 181.601 344.303 208.937 L 344.297 236.274 343.100 235.154 L 341.903 234.034 343.091 235.278 C 344.462 236.714,344.476 236.711,344.737 234.892 C 345.032 232.842,345.869 232.897,346.092 234.981 C 346.310 237.003,346.358 237.002,348.400 234.960 L 350.216 233.144 349.013 233.144 C 347.242 233.144,347.253 232.698,349.073 230.692 C 350.869 228.713,352.758 225.188,352.988 223.385 C 353.345 220.580,353.359 220.542,353.986 220.542 C 354.653 220.542,354.883 220.960,354.883 222.174 C 354.883 224.449,356.653 228.080,359.129 230.883 C 360.683 232.642,360.693 233.144,359.176 233.144 C 357.875 233.144,357.896 233.282,359.433 234.792 L 360.705 236.043 361.200 235.413 C 362.174 234.174,363.194 231.680,363.479 229.844 C 363.865 227.351,363.867 227.347,364.449 227.347 C 364.983 227.347,364.980 227.340,365.426 229.994 C 365.566 230.825,365.868 231.949,366.099 232.490 L 366.517 233.474 369.152 230.852 L 371.786 228.229 370.959 228.161 C 368.650 227.971,368.444 227.480,370.030 225.949 C 373.064 223.020,375.534 217.989,375.548 214.713 C 375.558 212.186,377.060 212.917,377.469 215.648 C 378.040 219.459,380.146 223.415,383.086 226.197 C 384.423 227.461,384.112 227.980,381.909 228.161 C 381.092 228.229,381.124 228.269,385.317 232.453 L 389.549 236.677 391.302 234.911 L 393.055 233.144 391.857 233.144 C 390.183 233.144,390.090 232.670,391.475 231.185 C 393.842 228.646,395.640 225.308,395.865 223.033 C 396.091 220.750,396.172 220.542,396.827 220.542 C 397.499 220.542,397.732 220.958,397.732 222.155 C 397.732 223.258,398.400 225.436,399.209 226.969 L 399.874 228.229 399.939 212.480 L 400.004 196.731 393.512 190.220 C 389.941 186.639,386.055 182.823,384.877 181.740 L 382.735 179.771 367.726 178.228 C 359.472 177.380,352.496 176.686,352.225 176.687 C 351.954 176.687,350.063 177.793,348.021 179.144 M59.420 179.742 L 55.703 182.268 55.703 204.357 L 55.703 226.446 54.379 225.195 L 53.056 223.945 54.379 225.339 C 55.811 226.848,55.937 227.171,55.261 227.606 C 54.841 227.876,54.841 227.883,55.261 227.752 C 55.646 227.633,55.703 227.799,55.703 229.048 L 55.703 230.481 54.253 229.106 C 53.456 228.350,54.730 229.686,57.084 232.074 L 61.365 236.417 63.080 234.718 L 64.795 233.018 63.638 232.941 C 62.036 232.834,61.961 232.378,63.308 230.933 C 65.975 228.073,67.788 224.418,67.798 221.886 C 67.802 220.703,68.037 220.290,68.705 220.290 C 69.357 220.290,69.425 220.464,69.689 222.782 C 69.959 225.149,71.536 228.109,73.974 230.820 C 75.389 232.394,75.338 232.833,73.730 232.941 L 72.574 233.018 74.911 235.287 C 76.196 236.534,76.748 237.022,76.139 236.370 L 75.030 235.185 79.778 230.321 C 87.008 222.916,89.203 219.345,89.221 214.965 C 89.232 212.378,90.741 213.180,91.141 215.987 C 91.305 217.131,91.536 218.162,91.655 218.278 C 91.774 218.394,96.522 213.910,102.205 208.314 L 112.539 198.138 103.624 189.365 C 98.721 184.540,94.524 180.508,94.299 180.406 C 93.889 180.220,64.863 177.178,63.733 177.203 C 63.406 177.210,61.465 178.352,59.420 179.742 M103.650 220.794 C 103.650 221.279,103.702 221.478,103.765 221.235 C 103.829 220.992,103.829 220.595,103.765 220.353 C 103.702 220.110,103.650 220.309,103.650 220.794 M25.011 221.298 C 25.011 221.783,25.063 221.982,25.126 221.739 C 25.190 221.497,25.190 221.100,25.126 220.857 C 25.063 220.614,25.011 220.813,25.011 221.298 M9.452 225.331 C 10.135 226.024,10.750 226.591,10.819 226.591 C 10.888 226.591,10.387 226.024,9.704 225.331 C 9.021 224.638,8.406 224.071,8.337 224.071 C 8.267 224.071,8.769 224.638,9.452 225.331 M337.618 225.583 C 338.301 226.276,338.916 226.843,338.985 226.843 C 339.055 226.843,338.553 226.276,337.870 225.583 C 337.187 224.890,336.572 224.323,336.503 224.323 C 336.434 224.323,336.935 224.890,337.618 225.583 M96.156 225.835 C 96.839 226.528,97.454 227.095,97.524 227.095 C 97.593 227.095,97.091 226.528,96.408 225.835 C 95.726 225.142,95.110 224.575,95.041 224.575 C 94.972 224.575,95.474 225.142,96.156 225.835 M9.452 229.364 C 10.275 230.195,11.005 230.876,11.074 230.876 C 11.144 230.876,10.527 230.195,9.704 229.364 C 8.881 228.532,8.151 227.851,8.081 227.851 C 8.012 227.851,8.629 228.532,9.452 229.364 M42.583 228.796 L 41.714 229.742 42.659 228.873 C 43.539 228.065,43.720 227.851,43.528 227.851 C 43.486 227.851,43.060 228.277,42.583 228.796 M337.618 229.616 C 338.441 230.447,339.171 231.128,339.241 231.128 C 339.310 231.128,338.693 230.447,337.870 229.616 C 337.047 228.784,336.317 228.103,336.248 228.103 C 336.178 228.103,336.795 228.784,337.618 229.616 M84.422 229.301 L 83.554 230.246 84.499 229.377 C 85.379 228.569,85.560 228.355,85.368 228.355 C 85.326 228.355,84.900 228.781,84.422 229.301 M96.156 229.868 C 96.979 230.699,97.709 231.380,97.779 231.380 C 97.848 231.380,97.231 230.699,96.408 229.868 C 95.585 229.036,94.855 228.355,94.786 228.355 C 94.716 228.355,95.333 229.036,96.156 229.868 M109.864 230.416 C 110.600 231.201,110.917 231.732,110.812 232.004 C 110.720 232.244,110.759 232.350,110.904 232.260 C 111.386 231.963,111.142 231.474,109.956 230.361 L 108.759 229.238 109.864 230.416 M31.225 230.920 C 31.961 231.705,32.278 232.236,32.173 232.509 C 32.081 232.748,32.120 232.854,32.265 232.764 C 32.747 232.467,32.503 231.978,31.317 230.865 L 30.120 229.742 31.225 230.920 M111.279 235.413 C 112.938 237.076,114.353 238.437,114.422 238.437 C 114.491 238.437,113.190 237.076,111.531 235.413 C 109.872 233.749,108.458 232.388,108.388 232.388 C 108.319 232.388,109.620 233.749,111.279 235.413 M19.968 234.696 C 18.960 235.684,18.172 236.529,18.218 236.575 C 18.263 236.621,19.142 235.811,20.171 234.775 C 21.200 233.740,21.988 232.894,21.922 232.896 C 21.856 232.899,20.977 233.709,19.968 234.696 M31.002 234.279 C 31.755 235.041,32.428 235.665,32.497 235.665 C 32.566 235.665,32.007 235.041,31.254 234.279 C 30.501 233.516,29.828 232.892,29.759 232.892 C 29.690 232.892,30.249 233.516,31.002 234.279 M79.011 234.972 L 77.001 237.051 79.080 235.041 C 81.011 233.173,81.274 232.892,81.090 232.892 C 81.053 232.892,80.117 233.828,79.011 234.972 M14.925 235.035 C 15.579 235.715,16.152 236.219,16.199 236.157 C 16.245 236.094,15.711 235.538,15.010 234.921 L 13.737 233.800 14.925 235.035 M16.447 234.783 C 16.449 235.337,16.501 235.534,16.561 235.221 C 16.622 234.907,16.619 234.454,16.556 234.213 C 16.493 233.972,16.444 234.228,16.447 234.783 M13.863 238.563 C 14.333 239.049,14.818 239.445,14.940 239.445 C 15.062 239.445,14.789 239.134,14.335 238.752 L 13.508 238.059 14.756 237.910 L 16.005 237.760 14.506 237.721 L 13.008 237.681 13.863 238.563 M58.419 238.241 L 58.979 238.801 59.539 238.241 L 60.099 237.681 58.979 237.681 L 57.859 237.681 58.419 238.241 M342.029 238.815 C 342.499 239.301,342.984 239.698,343.106 239.698 C 343.228 239.698,342.956 239.386,342.501 239.004 L 341.674 238.311 342.923 238.162 L 344.171 238.012 342.673 237.973 L 341.174 237.933 342.029 238.815 M386.585 238.493 L 387.146 239.053 387.706 238.493 L 388.266 237.933 387.146 237.933 L 386.025 237.933 386.585 238.493 M78.450 238.366 C 78.831 238.424,79.455 238.424,79.836 238.366 C 80.217 238.308,79.905 238.261,79.143 238.261 C 78.381 238.261,78.069 238.308,78.450 238.366 M266.611 238.997 L 267.171 239.558 267.731 238.997 L 268.291 238.437 267.171 238.437 L 266.051 238.437 266.611 238.997 M115.635 240.383 C 115.516 240.841,115.275 240.945,114.142 241.023 L 112.791 241.117 114.084 241.163 C 115.404 241.211,116.105 240.818,115.884 240.154 C 115.825 239.978,115.715 240.080,115.635 240.383 M3.340 258.298 L 1.764 258.373 1.764 266.136 C 1.764 274.693,1.772 274.732,3.359 274.732 C 4.816 274.732,5.041 274.109,5.041 270.082 L 5.041 266.440 3.594 266.364 C 1.553 266.258,1.539 265.776,3.515 263.782 L 5.063 262.220 4.989 260.222 L 4.915 258.223 3.340 258.298 M331.506 258.550 L 329.931 258.625 329.931 266.388 C 329.931 274.909,329.944 274.984,331.478 274.984 C 332.935 274.984,333.074 274.614,333.162 270.481 L 333.243 266.693 331.778 266.617 C 329.718 266.510,329.700 266.033,331.681 264.034 L 333.229 262.472 333.155 260.474 L 333.081 258.475 331.506 258.550 M103.088 260.799 L 103.088 262.744 104.407 264.080 C 105.963 265.656,105.894 266.236,104.133 266.366 L 103.088 266.444 103.088 269.403 C 103.088 272.672,103.206 272.968,104.515 272.968 C 105.802 272.968,105.860 272.643,105.860 265.423 L 105.860 258.853 104.474 258.853 L 103.088 258.853 103.088 260.799 M395.463 261.803 C 395.463 263.933,395.487 264.020,396.276 264.835 C 397.171 265.758,397.063 266.464,396.005 266.621 C 395.483 266.699,395.463 266.821,395.463 269.910 C 395.463 273.446,395.567 273.724,396.891 273.724 C 398.178 273.724,398.236 273.399,398.236 266.179 L 398.236 259.609 396.849 259.609 L 395.463 259.609 395.463 261.803 M275.445 262.244 C 275.520 264.316,275.587 264.570,276.256 265.332 C 277.068 266.257,277.013 266.843,276.091 267.074 C 275.495 267.224,275.488 267.262,275.488 270.424 C 275.488 273.869,275.608 274.228,276.760 274.228 C 278.203 274.228,278.261 273.938,278.261 266.732 L 278.261 260.158 276.812 260.073 L 275.362 259.987 275.445 262.244 M34.951 265.322 C 34.858 265.415,34.783 268.339,34.783 271.820 C 34.783 278.693,34.890 279.269,36.165 279.269 C 37.512 279.269,37.555 279.037,37.555 271.816 L 37.555 265.154 36.337 265.154 C 35.667 265.154,35.043 265.230,34.951 265.322 M363.117 265.574 C 363.025 265.667,362.949 268.591,362.949 272.072 C 362.949 278.945,363.056 279.521,364.332 279.521 C 365.678 279.521,365.721 279.289,365.721 272.068 L 365.721 265.406 364.503 265.406 C 363.833 265.406,363.209 265.482,363.117 265.574 M67.415 266.452 C 67.319 266.889,67.323 269.852,67.425 273.036 C 67.623 279.224,67.753 279.773,69.022 279.773 C 70.241 279.773,70.321 279.306,70.321 272.255 L 70.321 265.658 68.955 265.658 C 67.628 265.658,67.584 265.681,67.415 266.452 M15.929 272.221 C 16.010 278.412,16.029 278.500,17.278 278.509 C 18.340 278.517,18.399 278.183,18.399 272.161 L 18.399 266.415 17.126 266.415 L 15.853 266.415 15.929 272.221 M24.449 269.641 C 24.449 273.126,24.565 273.472,25.741 273.472 C 27.041 273.472,27.221 272.994,27.221 269.547 L 27.221 266.415 25.835 266.415 L 24.449 266.415 24.449 269.641 M46.629 270.156 C 46.629 274.247,46.793 274.732,48.176 274.732 C 49.634 274.732,49.772 274.363,49.861 270.216 L 49.942 266.415 48.285 266.415 L 46.629 266.415 46.629 270.156 M52.426 272.161 C 52.426 278.234,52.478 278.513,53.602 278.513 C 54.580 278.513,54.694 277.826,54.694 271.976 L 54.694 266.415 53.560 266.415 L 52.426 266.415 52.426 272.161 M88.477 270.384 C 88.483 273.475,88.567 274.462,88.855 274.843 C 89.068 275.125,89.225 275.878,89.225 276.620 C 89.225 278.028,89.526 278.513,90.401 278.513 C 91.350 278.513,91.496 277.756,91.664 271.967 L 91.826 266.415 90.147 266.415 L 88.469 266.415 88.477 270.384 M344.297 272.413 C 344.297 278.486,344.349 278.765,345.473 278.765 C 346.451 278.765,346.566 278.078,346.566 272.228 L 346.566 266.667 345.432 266.667 L 344.297 266.667 344.297 272.413 M352.615 269.893 C 352.615 273.447,352.718 273.724,354.043 273.724 C 355.215 273.724,355.388 273.210,355.388 269.708 L 355.388 266.667 354.001 266.667 L 352.615 266.667 352.615 269.893 M374.795 270.408 C 374.795 274.526,374.955 274.984,376.390 274.984 C 377.848 274.984,378.072 274.362,378.072 270.321 L 378.072 266.667 376.434 266.667 L 374.795 266.667 374.795 270.408 M380.390 272.473 C 380.471 278.664,380.490 278.752,381.739 278.761 C 382.802 278.769,382.861 278.435,382.861 272.413 L 382.861 266.667 381.587 266.667 L 380.314 266.667 380.390 272.473 M254.820 270.912 C 254.820 275.003,254.984 275.488,256.367 275.488 C 257.826 275.488,257.964 275.119,258.052 270.972 L 258.133 267.171 256.477 267.171 L 254.820 267.171 254.820 270.912 M260.618 272.917 C 260.618 278.990,260.669 279.269,261.793 279.269 C 262.771 279.269,262.886 278.582,262.886 272.732 L 262.886 267.171 261.752 267.171 L 260.618 267.171 260.618 272.917 M117.517 389.098 C 119.285 389.142,122.177 389.142,123.945 389.098 C 125.712 389.055,124.266 389.019,120.731 389.019 C 117.196 389.019,115.750 389.055,117.517 389.098 M182.540 389.095 L 185.243 389.178 185.321 393.455 L 185.400 397.732 185.390 393.384 L 185.381 389.036 182.609 389.024 L 179.836 389.011 182.540 389.095 M194.024 389.097 C 194.896 389.146,196.257 389.146,197.048 389.096 C 197.840 389.046,197.127 389.006,195.463 389.006 C 193.800 389.007,193.152 389.047,194.024 389.097 M208.514 389.095 C 209.177 389.148,210.198 389.147,210.783 389.094 C 211.368 389.041,210.825 388.999,209.578 388.999 C 208.330 389.000,207.852 389.043,208.514 389.095 M222.117 389.096 C 222.914 389.146,224.219 389.146,225.016 389.096 C 225.813 389.046,225.161 389.005,223.566 389.005 C 221.972 389.005,221.320 389.046,222.117 389.096 M237.375 389.096 C 238.107 389.147,239.241 389.147,239.895 389.095 C 240.549 389.043,239.950 389.001,238.563 389.002 C 237.177 389.003,236.642 389.045,237.375 389.096 M252.237 389.097 C 253.103 389.146,254.521 389.146,255.388 389.097 C 256.254 389.047,255.545 389.007,253.812 389.007 C 252.079 389.007,251.371 389.047,252.237 389.097 M268.000 389.097 C 268.942 389.146,270.416 389.145,271.277 389.096 C 272.138 389.047,271.367 389.007,269.565 389.008 C 267.763 389.008,267.059 389.048,268.000 389.097 M280.482 389.099 C 282.604 389.141,286.007 389.141,288.043 389.098 C 290.079 389.056,288.343 389.021,284.184 389.022 C 280.025 389.022,278.359 389.056,280.482 389.099 M282.372 395.589 C 282.373 396.421,282.420 396.731,282.476 396.278 C 282.532 395.825,282.531 395.144,282.474 394.765 C 282.416 394.387,282.370 394.757,282.372 395.589 M256.440 405.041 C 256.440 408.160,256.477 409.436,256.521 407.876 C 256.565 406.317,256.565 403.765,256.521 402.205 C 256.477 400.646,256.440 401.922,256.440 405.041 M282.376 403.655 C 282.377 404.625,282.423 404.991,282.478 404.468 C 282.532 403.945,282.531 403.151,282.476 402.704 C 282.420 402.256,282.375 402.684,282.376 403.655 M185.353 407.435 C 185.354 409.238,185.394 409.942,185.442 409.000 C 185.491 408.059,185.491 406.584,185.442 405.724 C 185.392 404.863,185.353 405.633,185.353 407.435 M260.807 407.240 C 261.257 407.296,261.994 407.296,262.445 407.240 C 262.895 407.184,262.527 407.138,261.626 407.138 C 260.725 407.138,260.356 407.184,260.807 407.240 " stroke="none" fill="#9a6a42" fill-rule="evenodd"></path><path id="path4" d="M270.699 175.756 C 270.699 175.800,271.068 176.168,271.519 176.575 L 272.338 177.316 271.597 176.497 C 270.907 175.733,270.699 175.562,270.699 175.756 M105.104 190.926 C 105.574 191.411,106.016 191.808,106.085 191.808 C 106.154 191.808,105.826 191.411,105.356 190.926 C 104.886 190.441,104.444 190.044,104.375 190.044 C 104.306 190.044,104.634 190.441,105.104 190.926 M288.836 193.636 C 289.881 194.749,290.107 194.949,290.107 194.759 C 290.107 194.719,289.568 194.180,288.910 193.562 L 287.713 192.439 288.836 193.636 M35.690 227.393 C 35.635 227.576,35.457 228.536,35.294 229.528 C 34.840 232.288,32.709 236.254,30.651 238.166 C 29.625 239.120,29.793 239.445,31.312 239.445 L 32.631 239.445 30.112 242.029 C 24.432 247.856,24.347 248.015,26.923 248.015 L 28.076 248.015 27.267 248.850 C 26.585 249.554,26.484 249.810,26.619 250.488 C 26.775 251.268,26.754 251.292,25.908 251.292 C 24.502 251.292,24.587 251.475,27.363 254.391 C 30.494 257.683,30.494 257.683,27.511 257.845 L 25.194 257.971 28.619 261.374 C 33.440 266.164,33.482 266.415,29.472 266.415 L 27.221 266.415 27.221 269.547 C 27.221 272.994,27.041 273.472,25.741 273.472 C 24.565 273.472,24.449 273.126,24.449 269.641 L 24.449 266.415 21.424 266.415 L 18.399 266.415 18.399 272.161 C 18.399 278.183,18.340 278.517,17.278 278.509 C 16.029 278.500,16.010 278.412,15.929 272.221 L 15.853 266.415 10.447 266.415 L 5.041 266.415 5.041 270.069 C 5.041 274.135,4.820 274.732,3.316 274.732 C 1.786 274.732,1.764 274.609,1.764 265.954 L 1.764 258.097 0.882 258.097 L 0.000 258.097 0.000 278.261 L 0.000 298.425 24.197 298.425 L 48.393 298.425 48.393 305.482 L 48.393 312.539 55.447 312.539 L 62.500 312.539 62.571 305.419 L 62.642 298.299 62.701 305.419 L 62.760 312.539 162.819 312.539 L 262.878 312.539 262.949 305.419 L 263.020 298.299 263.079 305.419 L 263.138 312.539 270.195 312.539 L 277.253 312.539 277.253 305.482 L 277.253 298.425 290.359 298.425 L 303.466 298.425 303.466 305.482 L 303.466 312.539 304.470 312.539 L 305.474 312.539 305.545 305.419 L 305.616 298.299 305.675 305.419 L 305.734 312.539 320.601 312.539 L 335.468 312.539 335.539 305.419 L 335.610 298.299 335.669 305.419 L 335.728 312.539 336.736 312.539 L 337.744 312.539 337.744 305.482 L 337.744 298.425 368.872 298.425 L 400.000 298.425 400.000 279.017 L 400.000 259.609 399.118 259.609 L 398.236 259.609 398.236 266.179 C 398.236 273.399,398.178 273.724,396.891 273.724 C 395.566 273.724,395.463 273.447,395.463 269.893 L 395.463 266.667 389.162 266.667 L 382.861 266.667 382.861 272.413 C 382.861 278.435,382.802 278.769,381.739 278.761 C 380.490 278.752,380.471 278.664,380.390 272.473 L 380.314 266.667 379.193 266.667 L 378.072 266.667 378.072 270.321 C 378.072 274.387,377.851 274.984,376.347 274.984 C 374.971 274.984,374.795 274.461,374.795 270.365 L 374.795 266.667 371.124 266.667 C 365.329 266.667,365.333 266.685,370.192 261.818 L 373.907 258.097 371.571 258.097 C 368.290 258.097,368.292 257.931,371.609 254.604 C 374.641 251.562,374.652 251.544,373.310 251.544 C 372.007 251.544,371.832 251.022,372.775 249.948 C 373.464 249.164,373.484 249.081,373.092 248.688 C 372.699 248.295,372.730 248.267,373.568 248.267 C 374.150 248.267,374.628 248.087,374.929 247.755 C 375.447 247.182,375.735 247.543,370.265 241.903 L 368.126 239.698 369.304 239.698 C 370.931 239.698,370.983 239.386,369.610 237.865 C 367.232 235.228,365.683 232.273,365.354 229.742 C 365.056 227.456,364.995 227.308,364.390 227.394 C 363.910 227.462,363.805 227.685,363.645 228.986 C 363.258 232.118,361.243 236.104,358.938 238.295 C 357.795 239.382,357.917 239.698,359.479 239.698 L 360.798 239.698 358.279 242.281 C 352.598 248.108,352.513 248.267,355.090 248.267 L 356.243 248.267 355.434 249.102 C 354.751 249.806,354.650 250.062,354.786 250.740 C 354.942 251.520,354.920 251.544,354.075 251.544 C 352.668 251.544,352.754 251.727,355.529 254.643 C 358.661 257.935,358.661 257.935,355.677 258.097 L 353.361 258.223 356.785 261.626 C 361.606 266.416,361.648 266.667,357.638 266.667 L 355.388 266.667 355.388 269.708 C 355.388 273.210,355.215 273.724,354.043 273.724 C 352.718 273.724,352.615 273.447,352.615 269.893 L 352.615 266.667 349.590 266.667 L 346.566 266.667 346.566 272.228 C 346.566 278.078,346.451 278.765,345.473 278.765 C 344.349 278.765,344.297 278.486,344.297 272.413 L 344.297 266.667 338.771 266.667 L 333.244 266.667 333.162 270.468 C 333.073 274.637,332.940 274.984,331.434 274.984 C 329.959 274.984,329.931 274.822,329.931 266.206 L 329.931 258.349 320.655 258.349 C 308.520 258.349,308.915 258.860,315.745 251.999 L 320.714 247.007 317.908 247.007 C 316.364 247.007,314.922 246.938,314.702 246.854 C 314.266 246.687,314.160 245.865,314.544 245.628 C 314.676 245.546,315.024 245.143,315.317 244.731 L 315.850 243.982 301.419 243.982 L 286.988 243.982 289.451 246.489 C 292.645 249.740,292.631 249.864,289.029 250.032 L 286.318 250.158 290.371 254.190 C 296.562 260.350,296.902 259.861,286.425 259.861 L 278.261 259.861 278.261 266.628 C 278.261 274.045,278.224 274.228,276.716 274.228 C 275.613 274.228,275.488 273.843,275.488 270.424 C 275.488 267.262,275.495 267.224,276.091 267.074 C 277.016 266.842,277.068 266.257,276.247 265.322 C 275.566 264.546,275.504 264.308,275.436 262.234 L 275.362 259.987 273.099 259.914 C 271.172 259.851,270.747 259.757,270.241 259.284 L 269.647 258.727 271.980 258.601 C 274.984 258.439,274.986 258.466,271.704 255.011 L 268.920 252.078 269.996 252.000 C 271.678 251.878,271.473 251.422,268.165 247.947 L 265.112 244.739 266.023 244.739 C 267.363 244.739,267.334 244.262,265.900 242.716 C 264.242 240.930,262.658 237.768,262.461 235.851 C 262.248 233.790,261.122 233.094,261.122 235.023 C 261.122 237.177,259.680 240.249,257.421 242.908 C 256.175 244.374,256.191 244.739,257.500 244.739 L 258.386 244.739 255.406 247.899 C 252.084 251.423,251.871 251.882,253.501 252.000 L 254.577 252.077 251.863 254.969 C 248.527 258.523,248.534 258.439,251.544 258.616 C 252.861 258.693,249.963 258.778,245.104 258.805 C 233.466 258.868,233.799 259.339,240.640 252.491 L 245.616 247.511 242.803 247.511 C 238.704 247.511,238.474 247.306,240.225 245.215 L 241.257 243.982 178.543 243.982 L 115.829 243.982 117.674 245.840 C 120.218 248.401,120.144 248.608,116.628 248.771 L 113.917 248.897 118.206 253.179 C 124.174 259.138,124.401 258.853,113.690 258.853 L 105.860 258.853 105.860 265.423 C 105.860 272.643,105.802 272.968,104.515 272.968 C 103.205 272.968,103.088 272.673,103.088 269.389 L 103.088 266.415 97.457 266.415 L 91.826 266.415 91.664 271.967 C 91.496 277.756,91.350 278.513,90.401 278.513 C 89.526 278.513,89.225 278.028,89.225 276.620 C 89.225 275.878,89.068 275.125,88.855 274.843 C 88.567 274.462,88.483 273.475,88.477 270.384 L 88.469 266.415 82.277 266.415 C 73.739 266.415,73.852 266.528,78.130 262.261 L 81.150 259.249 80.490 258.560 C 80.021 258.071,79.529 257.849,78.795 257.795 C 77.230 257.680,77.366 257.161,79.511 255.066 C 81.817 252.813,81.832 253.230,79.360 250.656 L 77.309 248.519 78.447 248.519 C 79.169 248.519,79.704 248.376,79.911 248.127 C 80.257 247.710,80.414 247.895,74.739 242.029 L 72.727 239.950 73.904 239.950 C 75.529 239.950,75.583 239.639,74.218 238.121 C 71.627 235.239,70.143 232.372,69.901 229.780 C 69.665 227.256,68.314 226.771,68.298 229.205 C 68.284 231.560,66.498 235.257,64.083 237.933 C 62.453 239.739,62.447 239.904,64.002 239.999 L 65.245 240.076 61.608 243.812 C 59.608 245.867,57.971 247.631,57.971 247.731 C 57.971 248.200,58.676 248.519,59.710 248.519 L 60.845 248.519 57.621 251.777 C 53.575 255.866,53.571 255.928,57.302 256.026 L 60.030 256.098 55.967 260.030 C 49.651 266.142,49.217 265.658,61.023 265.658 L 70.321 265.658 70.321 272.299 C 70.321 279.656,70.233 280.059,68.700 279.674 C 67.691 279.421,67.610 278.971,67.414 272.527 L 67.228 266.415 60.961 266.415 L 54.694 266.415 54.694 271.976 C 54.694 277.826,54.580 278.513,53.602 278.513 C 52.478 278.513,52.426 278.234,52.426 272.161 L 52.426 266.415 51.184 266.415 L 49.942 266.415 49.861 270.216 C 49.772 274.385,49.639 274.732,48.132 274.732 C 46.808 274.732,46.629 274.181,46.629 270.112 L 46.629 266.415 42.958 266.415 C 37.163 266.415,37.166 266.433,42.026 261.566 L 45.740 257.845 43.404 257.845 C 40.124 257.845,40.126 257.679,43.442 254.352 C 46.475 251.310,46.485 251.292,45.144 251.292 C 43.841 251.292,43.666 250.770,44.609 249.696 C 45.297 248.912,45.318 248.829,44.925 248.436 C 44.532 248.043,44.564 248.015,45.402 248.015 C 45.984 248.015,46.462 247.835,46.763 247.503 C 47.281 246.930,47.569 247.291,42.099 241.651 L 39.960 239.445 41.137 239.445 C 42.765 239.445,42.817 239.134,41.444 237.613 C 38.949 234.847,37.501 231.898,37.120 228.808 C 36.928 227.249,36.004 226.335,35.690 227.393 M5.041 260.174 L 5.041 262.251 6.581 260.711 C 8.562 258.729,8.521 258.097,6.410 258.097 L 5.041 258.097 5.041 260.174 M333.207 260.426 L 333.207 262.503 334.747 260.963 C 336.729 258.981,336.688 258.349,334.577 258.349 L 333.207 258.349 333.207 260.426 M99.307 258.923 C 99.307 258.961,100.158 259.837,101.197 260.870 L 103.088 262.747 103.088 260.800 L 103.088 258.853 101.197 258.853 C 100.158 258.853,99.307 258.884,99.307 258.923 M393.195 261.752 C 394.367 262.930,395.357 263.894,395.395 263.894 C 395.432 263.894,395.463 262.930,395.463 261.752 L 395.463 259.609 393.263 259.609 L 391.063 259.609 393.195 261.752 M37.555 271.816 C 37.555 279.037,37.512 279.269,36.165 279.269 C 34.890 279.269,34.783 278.693,34.783 271.820 C 34.783 264.737,34.685 265.154,36.337 265.154 L 37.555 265.154 37.555 271.816 M365.721 272.068 C 365.721 279.289,365.678 279.521,364.332 279.521 C 363.056 279.521,362.949 278.945,362.949 272.072 C 362.949 264.989,362.852 265.406,364.503 265.406 L 365.721 265.406 365.721 272.068 M258.052 270.972 C 257.964 275.119,257.826 275.488,256.367 275.488 C 254.984 275.488,254.820 275.003,254.820 270.912 L 254.820 267.171 256.477 267.171 L 258.133 267.171 258.052 270.972 M262.886 272.732 C 262.886 278.582,262.771 279.269,261.793 279.269 C 260.669 279.269,260.618 278.990,260.618 272.917 L 260.618 267.171 261.752 267.171 L 262.886 267.171 262.886 272.732 M43.973 358.223 C 43.907 358.396,43.882 377.139,43.918 399.874 L 43.982 441.210 202.773 441.210 L 361.563 441.210 361.563 399.622 L 361.563 358.034 202.828 357.971 C 75.972 357.920,44.069 357.971,43.973 358.223 M361.437 399.622 L 361.437 441.084 202.773 441.084 L 44.108 441.084 44.108 399.622 L 44.108 358.160 202.773 358.160 L 361.437 358.160 361.437 399.622 M114.293 399.748 C 114.293 405.778,114.326 408.245,114.366 405.230 C 114.407 402.215,114.407 397.281,114.366 394.266 C 114.326 391.251,114.293 393.718,114.293 399.748 M226.455 399.748 C 226.455 405.778,226.488 408.245,226.528 405.230 C 226.568 402.215,226.568 397.281,226.528 394.266 C 226.488 391.251,226.455 393.718,226.455 399.748 M272.831 399.748 C 272.831 405.778,272.864 408.245,272.905 405.230 C 272.945 402.215,272.945 397.281,272.905 394.266 C 272.864 391.251,272.831 393.718,272.831 399.748 M137.353 391.871 L 136.484 392.817 137.429 391.948 C 138.309 391.140,138.490 390.926,138.298 390.926 C 138.256 390.926,137.830 391.352,137.353 391.871 M121.298 394.136 C 121.957 394.188,123.034 394.188,123.693 394.136 C 124.351 394.084,123.812 394.042,122.495 394.042 C 121.178 394.042,120.640 394.084,121.298 394.136 M121.298 397.413 C 121.957 397.465,123.034 397.465,123.693 397.413 C 124.351 397.361,123.812 397.318,122.495 397.318 C 121.178 397.318,120.640 397.361,121.298 397.413 M148.767 399.748 C 148.767 400.233,148.819 400.432,148.882 400.189 C 148.945 399.946,148.945 399.549,148.882 399.307 C 148.819 399.064,148.767 399.263,148.767 399.748 M154.826 400.000 C 154.826 400.624,154.875 400.879,154.935 400.567 C 154.995 400.255,154.995 399.745,154.935 399.433 C 154.875 399.121,154.826 399.376,154.826 400.000 M237.625 402.453 C 238.218 402.507,239.125 402.506,239.641 402.452 C 240.157 402.397,239.672 402.354,238.563 402.355 C 237.454 402.356,237.032 402.400,237.625 402.453 M132.641 404.915 C 132.644 405.469,132.695 405.667,132.755 405.353 C 132.816 405.040,132.813 404.586,132.750 404.345 C 132.687 404.104,132.638 404.360,132.641 404.915 M284.890 405.481 C 286.249 405.526,288.404 405.526,289.679 405.481 C 290.954 405.435,289.842 405.398,287.209 405.398 C 284.575 405.398,283.531 405.436,284.890 405.481 M237.124 406.488 C 237.996 406.537,239.357 406.537,240.149 406.487 C 240.940 406.437,240.227 406.397,238.563 406.397 C 236.900 406.398,236.252 406.439,237.124 406.488 " stroke="none" fill="#8ba334" fill-rule="evenodd"></path></g></svg>